<mxfile host="app.diagrams.net" modified="2021-06-11T06:50:35.667Z" agent="5.0 (Windows NT 10.0; Win64; x64) AppleWebKit/537.36 (KHTML, like Gecko) Chrome/91.0.4472.101 Safari/537.36" etag="1OBZcgThQCgbei-fR0NM" version="14.7.7" type="github">
  <diagram id="R2lEEEUBdFMjLlhIrx00" name="Page-1">
    <mxGraphModel dx="2272" dy="762" grid="1" gridSize="10" guides="1" tooltips="1" connect="1" arrows="1" fold="1" page="1" pageScale="1" pageWidth="850" pageHeight="1100" math="0" shadow="0" extFonts="Permanent Marker^https://fonts.googleapis.com/css?family=Permanent+Marker">
      <root>
        <mxCell id="0" />
        <mxCell id="1" parent="0" />
        <mxCell id="lHLuO7Pg7kEeJTqFtibo-1" value="Il" style="rounded=0;whiteSpace=wrap;html=1;" vertex="1" parent="1">
          <mxGeometry x="-150" y="120" width="120" height="60" as="geometry" />
        </mxCell>
        <mxCell id="lHLuO7Pg7kEeJTqFtibo-2" value="Ilce" style="rounded=0;whiteSpace=wrap;html=1;" vertex="1" parent="1">
          <mxGeometry x="-150" y="370" width="120" height="60" as="geometry" />
        </mxCell>
        <mxCell id="lHLuO7Pg7kEeJTqFtibo-3" value="Adres" style="rounded=0;whiteSpace=wrap;html=1;" vertex="1" parent="1">
          <mxGeometry x="160" y="120" width="120" height="60" as="geometry" />
        </mxCell>
        <mxCell id="lHLuO7Pg7kEeJTqFtibo-4" value="Uye" style="rounded=0;whiteSpace=wrap;html=1;" vertex="1" parent="1">
          <mxGeometry x="150" y="440" width="120" height="60" as="geometry" />
        </mxCell>
        <mxCell id="lHLuO7Pg7kEeJTqFtibo-5" value="BenimBahcem" style="rounded=0;whiteSpace=wrap;html=1;" vertex="1" parent="1">
          <mxGeometry x="590" y="120" width="120" height="60" as="geometry" />
        </mxCell>
        <mxCell id="lHLuO7Pg7kEeJTqFtibo-6" value="Bitki" style="rounded=0;whiteSpace=wrap;html=1;" vertex="1" parent="1">
          <mxGeometry x="590" y="365" width="120" height="60" as="geometry" />
        </mxCell>
        <mxCell id="lHLuO7Pg7kEeJTqFtibo-7" value="Not" style="rounded=0;whiteSpace=wrap;html=1;" vertex="1" parent="1">
          <mxGeometry x="840" y="120" width="120" height="60" as="geometry" />
        </mxCell>
        <mxCell id="lHLuO7Pg7kEeJTqFtibo-8" value="BitkiKategori" style="rounded=0;whiteSpace=wrap;html=1;" vertex="1" parent="1">
          <mxGeometry x="840" y="360" width="120" height="60" as="geometry" />
        </mxCell>
        <mxCell id="lHLuO7Pg7kEeJTqFtibo-9" value="BlogYazisi" style="rounded=0;whiteSpace=wrap;html=1;" vertex="1" parent="1">
          <mxGeometry x="840" y="560" width="120" height="60" as="geometry" />
        </mxCell>
        <mxCell id="lHLuO7Pg7kEeJTqFtibo-10" value="BlogKategori" style="rounded=0;whiteSpace=wrap;html=1;" vertex="1" parent="1">
          <mxGeometry x="590" y="560" width="120" height="60" as="geometry" />
        </mxCell>
        <mxCell id="lHLuO7Pg7kEeJTqFtibo-11" value="Id" style="ellipse;whiteSpace=wrap;html=1;" vertex="1" parent="1">
          <mxGeometry x="-200" y="20" width="70" height="50" as="geometry" />
        </mxCell>
        <mxCell id="lHLuO7Pg7kEeJTqFtibo-12" value="Il" style="ellipse;whiteSpace=wrap;html=1;" vertex="1" parent="1">
          <mxGeometry x="-260" y="110" width="70" height="50" as="geometry" />
        </mxCell>
        <mxCell id="lHLuO7Pg7kEeJTqFtibo-13" value="Ilce" style="ellipse;whiteSpace=wrap;html=1;" vertex="1" parent="1">
          <mxGeometry x="-230" y="450" width="70" height="50" as="geometry" />
        </mxCell>
        <mxCell id="lHLuO7Pg7kEeJTqFtibo-14" value="Id" style="ellipse;whiteSpace=wrap;html=1;" vertex="1" parent="1">
          <mxGeometry x="-260" y="370" width="70" height="50" as="geometry" />
        </mxCell>
        <mxCell id="lHLuO7Pg7kEeJTqFtibo-17" value="Il_Ilce" style="rhombus;whiteSpace=wrap;html=1;" vertex="1" parent="1">
          <mxGeometry x="-130" y="240" width="80" height="80" as="geometry" />
        </mxCell>
        <mxCell id="lHLuO7Pg7kEeJTqFtibo-18" value="" style="endArrow=none;html=1;entryX=0.714;entryY=1;entryDx=0;entryDy=0;entryPerimeter=0;" edge="1" parent="1" target="lHLuO7Pg7kEeJTqFtibo-11">
          <mxGeometry width="50" height="50" relative="1" as="geometry">
            <mxPoint x="-120" y="119" as="sourcePoint" />
            <mxPoint x="-140" y="60" as="targetPoint" />
            <Array as="points" />
          </mxGeometry>
        </mxCell>
        <mxCell id="lHLuO7Pg7kEeJTqFtibo-19" value="" style="endArrow=none;html=1;entryX=1;entryY=0.5;entryDx=0;entryDy=0;" edge="1" parent="1" target="lHLuO7Pg7kEeJTqFtibo-12">
          <mxGeometry width="50" height="50" relative="1" as="geometry">
            <mxPoint x="-150" y="135" as="sourcePoint" />
            <mxPoint x="-140.01999999999998" y="80" as="targetPoint" />
            <Array as="points" />
          </mxGeometry>
        </mxCell>
        <mxCell id="lHLuO7Pg7kEeJTqFtibo-20" value="" style="endArrow=none;html=1;entryX=0.5;entryY=1;entryDx=0;entryDy=0;exitX=0.5;exitY=0;exitDx=0;exitDy=0;" edge="1" parent="1" source="lHLuO7Pg7kEeJTqFtibo-17" target="lHLuO7Pg7kEeJTqFtibo-1">
          <mxGeometry width="50" height="50" relative="1" as="geometry">
            <mxPoint x="-110" y="240" as="sourcePoint" />
            <mxPoint x="-60" y="190" as="targetPoint" />
          </mxGeometry>
        </mxCell>
        <mxCell id="lHLuO7Pg7kEeJTqFtibo-21" value="" style="endArrow=none;html=1;entryX=0.714;entryY=1;entryDx=0;entryDy=0;entryPerimeter=0;exitX=0.5;exitY=0;exitDx=0;exitDy=0;" edge="1" parent="1" source="lHLuO7Pg7kEeJTqFtibo-2">
          <mxGeometry width="50" height="50" relative="1" as="geometry">
            <mxPoint x="-59.97999999999999" y="370" as="sourcePoint" />
            <mxPoint x="-89.99999999999997" y="321" as="targetPoint" />
            <Array as="points" />
          </mxGeometry>
        </mxCell>
        <mxCell id="lHLuO7Pg7kEeJTqFtibo-22" value="" style="endArrow=none;html=1;exitX=1;exitY=0.5;exitDx=0;exitDy=0;entryX=0.008;entryY=0.4;entryDx=0;entryDy=0;entryPerimeter=0;" edge="1" parent="1" source="lHLuO7Pg7kEeJTqFtibo-14" target="lHLuO7Pg7kEeJTqFtibo-2">
          <mxGeometry width="50" height="50" relative="1" as="geometry">
            <mxPoint x="-180" y="440" as="sourcePoint" />
            <mxPoint x="-130" y="390" as="targetPoint" />
          </mxGeometry>
        </mxCell>
        <mxCell id="lHLuO7Pg7kEeJTqFtibo-23" value="" style="endArrow=none;html=1;" edge="1" parent="1">
          <mxGeometry width="50" height="50" relative="1" as="geometry">
            <mxPoint x="-170" y="460" as="sourcePoint" />
            <mxPoint x="-140" y="430" as="targetPoint" />
          </mxGeometry>
        </mxCell>
        <mxCell id="lHLuO7Pg7kEeJTqFtibo-25" value="IlceId" style="ellipse;whiteSpace=wrap;html=1;" vertex="1" parent="1">
          <mxGeometry x="-130" y="470" width="70" height="50" as="geometry" />
        </mxCell>
        <mxCell id="lHLuO7Pg7kEeJTqFtibo-26" value="" style="endArrow=none;html=1;entryX=0.5;entryY=1;entryDx=0;entryDy=0;exitX=0.5;exitY=0;exitDx=0;exitDy=0;" edge="1" parent="1" source="lHLuO7Pg7kEeJTqFtibo-25" target="lHLuO7Pg7kEeJTqFtibo-2">
          <mxGeometry width="50" height="50" relative="1" as="geometry">
            <mxPoint x="-110" y="480" as="sourcePoint" />
            <mxPoint x="-60" y="430" as="targetPoint" />
          </mxGeometry>
        </mxCell>
        <mxCell id="lHLuO7Pg7kEeJTqFtibo-27" value="Cadde" style="ellipse;whiteSpace=wrap;html=1;" vertex="1" parent="1">
          <mxGeometry x="150" width="70" height="50" as="geometry" />
        </mxCell>
        <mxCell id="lHLuO7Pg7kEeJTqFtibo-28" value="Id" style="ellipse;whiteSpace=wrap;html=1;" vertex="1" parent="1">
          <mxGeometry x="10" y="50" width="70" height="50" as="geometry" />
        </mxCell>
        <mxCell id="lHLuO7Pg7kEeJTqFtibo-29" value="Sokak" style="ellipse;whiteSpace=wrap;html=1;" vertex="1" parent="1">
          <mxGeometry x="70" width="70" height="50" as="geometry" />
        </mxCell>
        <mxCell id="lHLuO7Pg7kEeJTqFtibo-30" value="Mahalle" style="ellipse;whiteSpace=wrap;html=1;" vertex="1" parent="1">
          <mxGeometry x="230" width="70" height="50" as="geometry" />
        </mxCell>
        <mxCell id="lHLuO7Pg7kEeJTqFtibo-31" value="BinaNo" style="ellipse;whiteSpace=wrap;html=1;" vertex="1" parent="1">
          <mxGeometry x="310" y="20" width="70" height="50" as="geometry" />
        </mxCell>
        <mxCell id="lHLuO7Pg7kEeJTqFtibo-32" value="Kat" style="ellipse;whiteSpace=wrap;html=1;" vertex="1" parent="1">
          <mxGeometry x="350" y="80" width="70" height="50" as="geometry" />
        </mxCell>
        <mxCell id="lHLuO7Pg7kEeJTqFtibo-33" value="PostaKodu" style="ellipse;whiteSpace=wrap;html=1;" vertex="1" parent="1">
          <mxGeometry x="350" y="290" width="70" height="50" as="geometry" />
        </mxCell>
        <mxCell id="lHLuO7Pg7kEeJTqFtibo-34" value="IlceId" style="ellipse;whiteSpace=wrap;html=1;" vertex="1" parent="1">
          <mxGeometry x="355" y="150" width="70" height="50" as="geometry" />
        </mxCell>
        <mxCell id="lHLuO7Pg7kEeJTqFtibo-35" value="IlId" style="ellipse;whiteSpace=wrap;html=1;" vertex="1" parent="1">
          <mxGeometry x="350" y="220" width="70" height="50" as="geometry" />
        </mxCell>
        <mxCell id="lHLuO7Pg7kEeJTqFtibo-36" value="" style="endArrow=none;html=1;entryX=0;entryY=0.5;entryDx=0;entryDy=0;" edge="1" parent="1" target="lHLuO7Pg7kEeJTqFtibo-32">
          <mxGeometry width="50" height="50" relative="1" as="geometry">
            <mxPoint x="276" y="120" as="sourcePoint" />
            <mxPoint x="350" y="135" as="targetPoint" />
          </mxGeometry>
        </mxCell>
        <mxCell id="lHLuO7Pg7kEeJTqFtibo-37" value="" style="endArrow=none;html=1;entryX=0;entryY=0;entryDx=0;entryDy=0;exitX=0.943;exitY=0.72;exitDx=0;exitDy=0;exitPerimeter=0;" edge="1" parent="1" source="lHLuO7Pg7kEeJTqFtibo-28" target="lHLuO7Pg7kEeJTqFtibo-3">
          <mxGeometry width="50" height="50" relative="1" as="geometry">
            <mxPoint x="100" y="140" as="sourcePoint" />
            <mxPoint x="150" y="90" as="targetPoint" />
          </mxGeometry>
        </mxCell>
        <mxCell id="lHLuO7Pg7kEeJTqFtibo-38" value="" style="endArrow=none;html=1;entryX=0.957;entryY=0.84;entryDx=0;entryDy=0;entryPerimeter=0;exitX=0.108;exitY=-0.033;exitDx=0;exitDy=0;exitPerimeter=0;" edge="1" parent="1" source="lHLuO7Pg7kEeJTqFtibo-3" target="lHLuO7Pg7kEeJTqFtibo-29">
          <mxGeometry width="50" height="50" relative="1" as="geometry">
            <mxPoint x="150" y="120" as="sourcePoint" />
            <mxPoint x="200" y="70" as="targetPoint" />
          </mxGeometry>
        </mxCell>
        <mxCell id="lHLuO7Pg7kEeJTqFtibo-39" value="" style="endArrow=none;html=1;entryX=0.657;entryY=0.98;entryDx=0;entryDy=0;entryPerimeter=0;exitX=0.425;exitY=0.017;exitDx=0;exitDy=0;exitPerimeter=0;" edge="1" parent="1" source="lHLuO7Pg7kEeJTqFtibo-3" target="lHLuO7Pg7kEeJTqFtibo-27">
          <mxGeometry width="50" height="50" relative="1" as="geometry">
            <mxPoint x="190" y="110" as="sourcePoint" />
            <mxPoint x="240" y="60" as="targetPoint" />
          </mxGeometry>
        </mxCell>
        <mxCell id="lHLuO7Pg7kEeJTqFtibo-40" value="" style="endArrow=none;html=1;entryX=0.4;entryY=1;entryDx=0;entryDy=0;entryPerimeter=0;exitX=0.667;exitY=0;exitDx=0;exitDy=0;exitPerimeter=0;" edge="1" parent="1" source="lHLuO7Pg7kEeJTqFtibo-3" target="lHLuO7Pg7kEeJTqFtibo-30">
          <mxGeometry width="50" height="50" relative="1" as="geometry">
            <mxPoint x="230" y="110" as="sourcePoint" />
            <mxPoint x="280" y="60" as="targetPoint" />
          </mxGeometry>
        </mxCell>
        <mxCell id="lHLuO7Pg7kEeJTqFtibo-41" value="" style="endArrow=none;html=1;entryX=0.286;entryY=0.8;entryDx=0;entryDy=0;entryPerimeter=0;exitX=0.85;exitY=0;exitDx=0;exitDy=0;exitPerimeter=0;" edge="1" parent="1" source="lHLuO7Pg7kEeJTqFtibo-3" target="lHLuO7Pg7kEeJTqFtibo-31">
          <mxGeometry width="50" height="50" relative="1" as="geometry">
            <mxPoint x="270" y="120" as="sourcePoint" />
            <mxPoint x="320" y="70" as="targetPoint" />
          </mxGeometry>
        </mxCell>
        <mxCell id="lHLuO7Pg7kEeJTqFtibo-43" value="" style="endArrow=none;html=1;entryX=0.057;entryY=0.82;entryDx=0;entryDy=0;entryPerimeter=0;" edge="1" parent="1" source="lHLuO7Pg7kEeJTqFtibo-3" target="lHLuO7Pg7kEeJTqFtibo-34">
          <mxGeometry width="50" height="50" relative="1" as="geometry">
            <mxPoint x="300" y="200" as="sourcePoint" />
            <mxPoint x="350" y="150" as="targetPoint" />
          </mxGeometry>
        </mxCell>
        <mxCell id="lHLuO7Pg7kEeJTqFtibo-44" value="" style="endArrow=none;html=1;entryX=0;entryY=0;entryDx=0;entryDy=0;exitX=1;exitY=1;exitDx=0;exitDy=0;" edge="1" parent="1" source="lHLuO7Pg7kEeJTqFtibo-3" target="lHLuO7Pg7kEeJTqFtibo-35">
          <mxGeometry width="50" height="50" relative="1" as="geometry">
            <mxPoint x="290" y="260" as="sourcePoint" />
            <mxPoint x="340" y="210" as="targetPoint" />
          </mxGeometry>
        </mxCell>
        <mxCell id="lHLuO7Pg7kEeJTqFtibo-45" value="" style="endArrow=none;html=1;entryX=0;entryY=0;entryDx=0;entryDy=0;exitX=0.85;exitY=0.983;exitDx=0;exitDy=0;exitPerimeter=0;" edge="1" parent="1" source="lHLuO7Pg7kEeJTqFtibo-3" target="lHLuO7Pg7kEeJTqFtibo-33">
          <mxGeometry width="50" height="50" relative="1" as="geometry">
            <mxPoint x="290" y="310" as="sourcePoint" />
            <mxPoint x="340" y="260" as="targetPoint" />
          </mxGeometry>
        </mxCell>
        <mxCell id="lHLuO7Pg7kEeJTqFtibo-46" value="Il_Adres" style="rhombus;whiteSpace=wrap;html=1;" vertex="1" parent="1">
          <mxGeometry x="20" y="110" width="80" height="80" as="geometry" />
        </mxCell>
        <mxCell id="lHLuO7Pg7kEeJTqFtibo-47" value="" style="endArrow=none;html=1;entryX=0;entryY=0.5;entryDx=0;entryDy=0;exitX=1;exitY=0.5;exitDx=0;exitDy=0;" edge="1" parent="1" source="lHLuO7Pg7kEeJTqFtibo-1" target="lHLuO7Pg7kEeJTqFtibo-46">
          <mxGeometry width="50" height="50" relative="1" as="geometry">
            <mxPoint x="-30" y="180" as="sourcePoint" />
            <mxPoint x="20" y="130" as="targetPoint" />
          </mxGeometry>
        </mxCell>
        <mxCell id="lHLuO7Pg7kEeJTqFtibo-48" value="" style="endArrow=none;html=1;entryX=0;entryY=0.5;entryDx=0;entryDy=0;exitX=1;exitY=0.5;exitDx=0;exitDy=0;" edge="1" parent="1" source="lHLuO7Pg7kEeJTqFtibo-46" target="lHLuO7Pg7kEeJTqFtibo-3">
          <mxGeometry width="50" height="50" relative="1" as="geometry">
            <mxPoint x="100" y="200" as="sourcePoint" />
            <mxPoint x="150" y="150" as="targetPoint" />
          </mxGeometry>
        </mxCell>
        <mxCell id="lHLuO7Pg7kEeJTqFtibo-49" value="Ilce_Adres" style="rhombus;whiteSpace=wrap;html=1;" vertex="1" parent="1">
          <mxGeometry x="5" y="270" width="80" height="80" as="geometry" />
        </mxCell>
        <mxCell id="lHLuO7Pg7kEeJTqFtibo-51" value="" style="endArrow=none;html=1;entryX=0;entryY=0.5;entryDx=0;entryDy=0;exitX=1;exitY=0;exitDx=0;exitDy=0;" edge="1" parent="1" source="lHLuO7Pg7kEeJTqFtibo-2" target="lHLuO7Pg7kEeJTqFtibo-49">
          <mxGeometry width="50" height="50" relative="1" as="geometry">
            <mxPoint x="-20" y="360" as="sourcePoint" />
            <mxPoint x="30" y="310" as="targetPoint" />
          </mxGeometry>
        </mxCell>
        <mxCell id="lHLuO7Pg7kEeJTqFtibo-52" value="" style="endArrow=none;html=1;entryX=0;entryY=1;entryDx=0;entryDy=0;exitX=1;exitY=0.5;exitDx=0;exitDy=0;" edge="1" parent="1" source="lHLuO7Pg7kEeJTqFtibo-49" target="lHLuO7Pg7kEeJTqFtibo-3">
          <mxGeometry width="50" height="50" relative="1" as="geometry">
            <mxPoint x="80" y="270" as="sourcePoint" />
            <mxPoint x="130" y="220" as="targetPoint" />
          </mxGeometry>
        </mxCell>
        <mxCell id="lHLuO7Pg7kEeJTqFtibo-53" value="Id" style="ellipse;whiteSpace=wrap;html=1;" vertex="1" parent="1">
          <mxGeometry x="40" y="390" width="70" height="50" as="geometry" />
        </mxCell>
        <mxCell id="lHLuO7Pg7kEeJTqFtibo-54" value="KullaniciAdi" style="ellipse;whiteSpace=wrap;html=1;" vertex="1" parent="1">
          <mxGeometry x="110" y="580" width="70" height="50" as="geometry" />
        </mxCell>
        <mxCell id="lHLuO7Pg7kEeJTqFtibo-55" value="Ad" style="ellipse;whiteSpace=wrap;html=1;" vertex="1" parent="1">
          <mxGeometry x="30" y="460" width="70" height="50" as="geometry" />
        </mxCell>
        <mxCell id="lHLuO7Pg7kEeJTqFtibo-56" value="Soyad" style="ellipse;whiteSpace=wrap;html=1;" vertex="1" parent="1">
          <mxGeometry x="60" y="525" width="70" height="50" as="geometry" />
        </mxCell>
        <mxCell id="lHLuO7Pg7kEeJTqFtibo-57" value="Cinsiyet" style="ellipse;whiteSpace=wrap;html=1;" vertex="1" parent="1">
          <mxGeometry x="200" y="580" width="70" height="50" as="geometry" />
        </mxCell>
        <mxCell id="lHLuO7Pg7kEeJTqFtibo-58" value="Telefon" style="ellipse;whiteSpace=wrap;html=1;" vertex="1" parent="1">
          <mxGeometry x="280" y="570" width="70" height="50" as="geometry" />
        </mxCell>
        <mxCell id="lHLuO7Pg7kEeJTqFtibo-59" value="Eposta" style="ellipse;whiteSpace=wrap;html=1;" vertex="1" parent="1">
          <mxGeometry x="340" y="520" width="70" height="50" as="geometry" />
        </mxCell>
        <mxCell id="lHLuO7Pg7kEeJTqFtibo-60" value="Sifre" style="ellipse;whiteSpace=wrap;html=1;" vertex="1" parent="1">
          <mxGeometry x="355" y="450" width="70" height="50" as="geometry" />
        </mxCell>
        <mxCell id="lHLuO7Pg7kEeJTqFtibo-61" value="AdresId" style="ellipse;whiteSpace=wrap;html=1;" vertex="1" parent="1">
          <mxGeometry x="340" y="390" width="70" height="50" as="geometry" />
        </mxCell>
        <mxCell id="lHLuO7Pg7kEeJTqFtibo-62" value="Adres_Uye" style="rhombus;whiteSpace=wrap;html=1;" vertex="1" parent="1">
          <mxGeometry x="180" y="275" width="80" height="80" as="geometry" />
        </mxCell>
        <mxCell id="lHLuO7Pg7kEeJTqFtibo-63" value="" style="endArrow=none;html=1;entryX=0.5;entryY=1;entryDx=0;entryDy=0;exitX=0.5;exitY=0;exitDx=0;exitDy=0;" edge="1" parent="1" source="lHLuO7Pg7kEeJTqFtibo-62" target="lHLuO7Pg7kEeJTqFtibo-3">
          <mxGeometry width="50" height="50" relative="1" as="geometry">
            <mxPoint x="200" y="260" as="sourcePoint" />
            <mxPoint x="250" y="210" as="targetPoint" />
          </mxGeometry>
        </mxCell>
        <mxCell id="lHLuO7Pg7kEeJTqFtibo-64" value="" style="endArrow=none;html=1;entryX=0.5;entryY=1;entryDx=0;entryDy=0;exitX=0.6;exitY=-0.033;exitDx=0;exitDy=0;exitPerimeter=0;" edge="1" parent="1" source="lHLuO7Pg7kEeJTqFtibo-4" target="lHLuO7Pg7kEeJTqFtibo-62">
          <mxGeometry width="50" height="50" relative="1" as="geometry">
            <mxPoint x="210" y="430" as="sourcePoint" />
            <mxPoint x="260" y="380" as="targetPoint" />
          </mxGeometry>
        </mxCell>
        <mxCell id="lHLuO7Pg7kEeJTqFtibo-65" value="" style="endArrow=none;html=1;entryX=0;entryY=0.5;entryDx=0;entryDy=0;exitX=1;exitY=0;exitDx=0;exitDy=0;" edge="1" parent="1" source="lHLuO7Pg7kEeJTqFtibo-4" target="lHLuO7Pg7kEeJTqFtibo-61">
          <mxGeometry width="50" height="50" relative="1" as="geometry">
            <mxPoint x="280" y="440" as="sourcePoint" />
            <mxPoint x="330" y="390" as="targetPoint" />
          </mxGeometry>
        </mxCell>
        <mxCell id="lHLuO7Pg7kEeJTqFtibo-66" value="" style="endArrow=none;html=1;entryX=0.043;entryY=0.64;entryDx=0;entryDy=0;entryPerimeter=0;exitX=1;exitY=0.75;exitDx=0;exitDy=0;" edge="1" parent="1" source="lHLuO7Pg7kEeJTqFtibo-4" target="lHLuO7Pg7kEeJTqFtibo-60">
          <mxGeometry width="50" height="50" relative="1" as="geometry">
            <mxPoint x="310" y="520" as="sourcePoint" />
            <mxPoint x="360" y="470" as="targetPoint" />
          </mxGeometry>
        </mxCell>
        <mxCell id="lHLuO7Pg7kEeJTqFtibo-67" value="" style="endArrow=none;html=1;entryX=1;entryY=1;entryDx=0;entryDy=0;exitX=0.043;exitY=0.26;exitDx=0;exitDy=0;exitPerimeter=0;" edge="1" parent="1" source="lHLuO7Pg7kEeJTqFtibo-59" target="lHLuO7Pg7kEeJTqFtibo-4">
          <mxGeometry width="50" height="50" relative="1" as="geometry">
            <mxPoint x="260" y="560" as="sourcePoint" />
            <mxPoint x="310" y="510" as="targetPoint" />
          </mxGeometry>
        </mxCell>
        <mxCell id="lHLuO7Pg7kEeJTqFtibo-68" value="" style="endArrow=none;html=1;exitX=0.5;exitY=0;exitDx=0;exitDy=0;" edge="1" parent="1" source="lHLuO7Pg7kEeJTqFtibo-57" target="lHLuO7Pg7kEeJTqFtibo-4">
          <mxGeometry width="50" height="50" relative="1" as="geometry">
            <mxPoint x="230" y="560" as="sourcePoint" />
            <mxPoint x="280" y="510" as="targetPoint" />
          </mxGeometry>
        </mxCell>
        <mxCell id="lHLuO7Pg7kEeJTqFtibo-69" value="" style="endArrow=none;html=1;exitX=0.75;exitY=1;exitDx=0;exitDy=0;entryX=0.357;entryY=0;entryDx=0;entryDy=0;entryPerimeter=0;" edge="1" parent="1" source="lHLuO7Pg7kEeJTqFtibo-4" target="lHLuO7Pg7kEeJTqFtibo-58">
          <mxGeometry width="50" height="50" relative="1" as="geometry">
            <mxPoint x="250" y="570" as="sourcePoint" />
            <mxPoint x="310" y="580" as="targetPoint" />
          </mxGeometry>
        </mxCell>
        <mxCell id="lHLuO7Pg7kEeJTqFtibo-70" value="" style="endArrow=none;html=1;entryX=0.25;entryY=1;entryDx=0;entryDy=0;" edge="1" parent="1" source="lHLuO7Pg7kEeJTqFtibo-54" target="lHLuO7Pg7kEeJTqFtibo-4">
          <mxGeometry width="50" height="50" relative="1" as="geometry">
            <mxPoint x="150" y="560" as="sourcePoint" />
            <mxPoint x="200" y="510" as="targetPoint" />
          </mxGeometry>
        </mxCell>
        <mxCell id="lHLuO7Pg7kEeJTqFtibo-71" value="" style="endArrow=none;html=1;entryX=0;entryY=1;entryDx=0;entryDy=0;exitX=1;exitY=0;exitDx=0;exitDy=0;" edge="1" parent="1" source="lHLuO7Pg7kEeJTqFtibo-56" target="lHLuO7Pg7kEeJTqFtibo-4">
          <mxGeometry width="50" height="50" relative="1" as="geometry">
            <mxPoint x="110" y="550" as="sourcePoint" />
            <mxPoint x="160" y="500" as="targetPoint" />
          </mxGeometry>
        </mxCell>
        <mxCell id="lHLuO7Pg7kEeJTqFtibo-72" value="" style="endArrow=none;html=1;entryX=0;entryY=0.5;entryDx=0;entryDy=0;exitX=1;exitY=0.5;exitDx=0;exitDy=0;" edge="1" parent="1" source="lHLuO7Pg7kEeJTqFtibo-55" target="lHLuO7Pg7kEeJTqFtibo-4">
          <mxGeometry width="50" height="50" relative="1" as="geometry">
            <mxPoint x="100" y="520" as="sourcePoint" />
            <mxPoint x="150" y="470" as="targetPoint" />
          </mxGeometry>
        </mxCell>
        <mxCell id="lHLuO7Pg7kEeJTqFtibo-73" value="" style="endArrow=none;html=1;entryX=0;entryY=0;entryDx=0;entryDy=0;exitX=1;exitY=0.7;exitDx=0;exitDy=0;exitPerimeter=0;" edge="1" parent="1" source="lHLuO7Pg7kEeJTqFtibo-53" target="lHLuO7Pg7kEeJTqFtibo-4">
          <mxGeometry width="50" height="50" relative="1" as="geometry">
            <mxPoint x="110" y="470" as="sourcePoint" />
            <mxPoint x="160" y="420" as="targetPoint" />
          </mxGeometry>
        </mxCell>
      </root>
    </mxGraphModel>
  </diagram>
</mxfile>
